<svg xmlns="http://www.w3.org/2000/svg"  viewBox="0 0 48 48" width="48px" height="48px"><path d="M 24 4 C 23.671124 4 23.34135 4.0071205 23.011719 4.0234375 A 1.50015 1.50015 0 1 0 23.160156 7.0195312 C 23.436525 7.0058501 23.716876 7 24 7 C 33.406292 7 41 14.593708 41 24 C 41 27.791385 39.765672 31.277207 37.673828 34.101562 A 1.5002178 1.5002178 0 1 0 40.083984 35.888672 C 42.544141 32.567028 44 28.444615 44 24 C 44 12.972292 35.027708 4 24 4 z M 12.582031 7.9316406 A 1.50015 1.50015 0 0 0 11.652344 8.265625 C 6.9933482 11.926033 4 17.624234 4 24 C 4 35.027708 12.972292 44 24 44 C 27.335307 44 30.49087 43.180119 33.259766 41.732422 A 1.50015 1.50015 0 1 0 31.869141 39.074219 C 29.516036 40.304522 26.844693 41 24 41 C 14.593708 41 7 33.406292 7 24 C 7 18.561766 9.5428551 13.738592 13.505859 10.625 A 1.50015 1.50015 0 0 0 12.582031 7.9316406 z M 19.681641 18.699219 C 19.402641 18.738094 19.135109 18.855875 18.912109 19.046875 L 14.460938 22.861328 C 14.128937 23.146328 13.9375 23.562 13.9375 24 C 13.9375 24.438 14.128937 24.853672 14.460938 25.138672 L 18.912109 28.953125 C 19.189109 29.191125 19.536672 29.314453 19.888672 29.314453 C 20.101672 29.314453 20.315625 29.269734 20.515625 29.177734 C 21.047625 28.932734 21.388672 28.400453 21.388672 27.814453 L 21.388672 25.5 A 1.50015 1.50015 0 0 0 21.427734 25.5 L 32.5625 25.5 A 1.50015 1.50015 0 1 0 32.5625 22.5 L 21.427734 22.5 A 1.50015 1.50015 0 0 0 21.388672 22.501953 L 21.388672 20.183594 C 21.388672 19.598594 21.047625 19.066266 20.515625 18.822266 C 20.250625 18.699766 19.960641 18.660344 19.681641 18.699219 z"/></svg>