<svg xmlns="http://www.w3.org/2000/svg"  viewBox="0 0 48 48" width="48px" height="48px"><path d="M 24 4 C 15.174229 4 7.660435 9.730354 5.015625 17.6875 A 1.5005381 1.5005381 0 1 0 7.8632812 18.634766 C 10.108471 11.879912 16.471771 7 24 7 C 33.406292 7 41 14.593708 41 24 C 41 25.672806 40.758652 27.287172 40.310547 28.810547 A 1.5002761 1.5002761 0 1 0 43.189453 29.65625 C 43.717348 27.861625 44 25.961194 44 24 C 44 12.972292 35.027708 4 24 4 z M 28.320312 18.697266 C 28.041937 18.658141 27.751375 18.698766 27.484375 18.822266 C 26.952375 19.066266 26.611328 19.597594 26.611328 20.183594 L 26.611328 22.5 A 1.50015 1.50015 0 0 0 26.572266 22.5 L 15.4375 22.5 A 1.50015 1.50015 0 1 0 15.4375 25.5 L 26.572266 25.5 A 1.50015 1.50015 0 0 0 26.611328 25.498047 L 26.611328 27.814453 C 26.611328 28.400453 26.952375 28.933734 27.484375 29.177734 C 27.685375 29.270734 27.900328 29.314453 28.111328 29.314453 C 28.463328 29.314453 28.809891 29.191125 29.087891 28.953125 L 33.539062 25.138672 C 33.872062 24.853672 34.0625 24.438 34.0625 24 C 34.0625 23.562 33.871063 23.146328 33.539062 22.861328 L 29.087891 19.046875 C 28.865391 18.855875 28.598688 18.736391 28.320312 18.697266 z M 5.4765625 22.478516 A 1.50015 1.50015 0 0 0 4 24 C 4 35.027708 12.972292 44 24 44 C 29.866279 44 35.160573 41.464391 38.818359 37.431641 A 1.50015 1.50015 0 1 0 36.597656 35.416016 C 33.485443 38.847266 29.003721 41 24 41 C 14.593708 41 7 33.406292 7 24 A 1.50015 1.50015 0 0 0 5.4765625 22.478516 z"/></svg>